<svg id="vector" xmlns="http://www.w3.org/2000/svg" width="60.0d" height="85.0d" viewBox="0 0 60.0 85.0"><path fill="#000000" d="M42.333,65V65C45.463,65 48,62.463 48,59.333V36C48,26.611 40.389,19 31,19V19C21.611,19 14,26.611 14,36V59.333C14,62.463 16.537,65 19.667,65V65" fill-opacity="0" stroke="#ffffff" stroke-width="4.5" id="path_0"/><path fill="#000000" d="M30.5,57L30.5,57A5.5,5.5 0,0 1,36 62.5L36,74.5A5.5,5.5 0,0 1,30.5 80L30.5,80A5.5,5.5 0,0 1,25 74.5L25,62.5A5.5,5.5 0,0 1,30.5 57z" fill-opacity="0" stroke="#ffffff" stroke-width="4.5" id="path_1"/><path fill="#000000" d="M30.5,31L30.5,31A5.5,5.5 0,0 1,36 36.5L36,36.5A5.5,5.5 0,0 1,30.5 42L30.5,42A5.5,5.5 0,0 1,25 36.5L25,36.5A5.5,5.5 0,0 1,30.5 31z" fill-opacity="0" stroke="#ffffff" stroke-width="4.5" id="path_2"/><path fill="#000000" d="M6,6H16.609C17.061,6 17.5,6.153 17.854,6.435L24.299,11.565C24.653,11.847 25.093,12 25.545,12H35.455C35.908,12 36.347,11.847 36.701,11.565L43.146,6.435C43.5,6.153 43.939,6 44.391,6H55" fill-opacity="0" stroke-linecap="round" stroke="#ffffff" stroke-width="4.5" id="path_3"/></svg>